<?xml version="1.0" encoding="utf-8"?>
<!-- Generator: Adobe Illustrator 27.9.0, SVG Export Plug-In . SVG Version: 6.00 Build 0)  -->
<svg version="1.1" id="Layer_1" xmlns="http://www.w3.org/2000/svg" xmlns:xlink="http://www.w3.org/1999/xlink" x="0px" y="0px"
	 viewBox="0 0 320 320" style="enable-background:new 0 0 320 320;" xml:space="preserve">
<style type="text/css">
	.st0{fill:#FFFFFF;}
</style>
<rect width="272.56" height="320"/>
<path class="st0" d="M0.87,265.81h28.97V63.62H0.87v-4.82h91.21v4.82H63.12v91.91h91.21V63.62h-28.97v-4.82h91.21v4.82H187.6v202.19
	h28.97v4.82h-95.52v-4.82h33.27V160.34H63.12v105.47h28.97v4.82H0.87V265.81z"/>
<path class="st0" d="M169.92,265.84v-6.62L284.1,68.08h-17.67c-49.93,0-71.53,16.98-74.62,58.15h-4.21V63.47H320l-0.28,5.18
	L205.83,261.23h36.75c44.32,0,67.04-20.44,73.5-66.5H320v71.1H169.92z"/>
<polygon points="319.72,68.65 320,63.47 272.56,63.47 272.56,68.08 284.1,68.08 272.56,87.39 272.56,148.4 "/>
<path d="M320,194.73h-3.93c-4.79,34.22-18.58,54.28-43.51,62.34v8.76H320V194.73z"/>
</svg>
